<?xml version="1.0" encoding="utf-8"?>
<!-- Generator: Adobe Illustrator 20.1.0, SVG Export Plug-In . SVG Version: 6.00 Build 0)  -->
<svg version="1.1" id="Layer_2" xmlns="http://www.w3.org/2000/svg" xmlns:xlink="http://www.w3.org/1999/xlink" x="0px" y="0px"
	 viewBox="0 0 801.3 961.9" style="enable-background:new 0 0 801.3 961.9;" xml:space="preserve">
<style type="text/css">
	.st0{fill:#424242;}
	.st1{fill:#FF9D00;}
	.st2{fill:#FFFFFF;}
	.st3{fill:#BC6F00;}
</style>
<g id="face_2_">
	<path class="st0" d="M641.4,196.5l154.5,676.8c2,8.9-2.4,18-10.6,22l-44.4,21.4l-22.4,33.3c-3.7,5.4-9.7,8.6-16.2,8.6H91.8
		c-6.5,0-12.6-3.3-16.2-8.6l-22.8-33.7l-39.5-21.8c-7.5-4.2-11.5-12.9-9.6-21.3l151.1-676.7"/>
	<polygon class="st1" points="629.6,213.2 396.7,213.2 385.8,213.2 164.2,213.2 17.9,881.2 62.1,905.6 87.8,943.6 385.6,943.6 
		397,943.6 706,943.6 731.6,905.4 781.5,881.4 	"/>
	<path class="st2" d="M629.6,213.2h-68.1H253.9h-89.7L90.9,932.7h612.8L629.6,213.2z M176.6,428.1l3-79.8l390.3-62.6l41.4,56.9
		l19.8,505.9H161.7L176.6,428.1z"/>
	<path class="st1" d="M603.3,887.2c-5.2-1.7-15.7-7.8-17.8-12.9c-5.9-14.7,3.8-47.5,3-63.3c-0.3-6.7,0-42.6-21.8-60.4
		c-13.1-10.7-32.5-3.2-37.6-2c-6.5,1.6-19.2,5.9-25.7,7.4c-6.1,1.4-18.5,4.4-24.7,4.5c-8,0.2-24-2.5-31.7-4.5
		c-7.7-2-22.8-7.5-29.7-11.4c-1.9-1-12.5-8.5-22.5-15.5c-6.9,6.5-15.4,14.4-17.4,15.5c-6.9,3.9-22,9.4-29.7,11.4
		c-7.7,2-23.7,4.7-31.7,4.5c-6.2-0.1-18.6-3.1-24.7-4.5c-6.5-1.5-19.2-5.8-25.7-7.4c-5.1-1.2-24.5-8.7-37.6,2
		c-21.8,17.8-21.5,53.6-21.8,60.4c-0.8,15.8,8.9,48.6,3,63.3c-2.1,5-12.6,11.2-17.8,12.9c-9.9,3.2-26.4-37.9-30.7-52.5
		c-7.1-24.5-15.6-75.4-15.8-101c-0.2-23.7-4-39.6,0-57.4c3.9-17.4,11.9-46.5,51.5-51.5c21.9-2.8,52.9-4.5,88.1,0
		c36.9,4.7,90.8,24.9,111.4,33.2c23.7-8.9,78.7-28.6,114.4-33.2c35.2-4.5,66.2-2.8,88.1,0c39.6,4.9,47.6,34,51.5,51.5
		c4,17.8,0.2,33.7,0,57.4c-0.2,25.5-8.7,76.4-15.8,101C629.7,849.4,613.1,890.3,603.3,887.2z"/>
	<path class="st2" d="M192.8,864.2c-5-9-11.4-23.8-14.6-34.6c-6.5-22.4-14.9-72.1-15.1-96c-0.1-8.6-0.6-16.3-1-23.1
		c-0.8-11.8-1.4-21.1,0.6-30.2c3.9-17.8,9.6-34,35.9-37.3c13.6-1.7,27.7-2.6,41.8-2.6c14,0,28,0.9,41.7,2.6c35.9,4.5,91,25.6,107,32
		l6.6,2.6l6.6-2.5c21.8-8.2,76.2-27.8,110.3-32.1c13.6-1.7,27.7-2.6,41.7-2.6c14.1,0,28.2,0.9,41.8,2.6c26.3,3.3,32,19.5,35.9,37.3
		c2,9.2,1.4,18.5,0.6,30.3c-0.5,6.8-1,14.4-1,23c-0.2,23.9-8.6,73.6-15.1,96c-3.1,10.7-9.5,25.5-14.5,34.5c-0.4-6.8,1.4-19.5,2.5-27
		c1.4-9.9,2.8-19.3,2.4-27.1c0-0.2,0-0.7,0-1.2c-1-33.5-10.6-57.8-28.4-72.4c-7.9-6.5-17.7-9.8-29.1-9.8c-9.6,0-18.1,2.4-22.6,3.7
		c-0.6,0.2-1.2,0.3-1.6,0.4l-0.2,0c-3.6,0.9-8.3,2.3-13.2,3.8c-4.5,1.4-9.5,2.9-12.3,3.6l-2,0.5c-4.2,1-15.3,3.5-19,3.5l-0.6,0
		c-6,0-19.4-2.1-26.3-3.9c-6.5-1.7-19.9-6.6-25.3-9.6c-2-1.2-10.1-6.9-16-11.1l-17.1-12l-10.9,10.2c-9.7,9.1-13.2,12.2-14.5,13.3
		c-5.9,3.1-18.4,7.7-24.6,9.2c-6.8,1.8-20.3,3.9-26.3,3.9l-0.6,0c-3.7-0.1-14.8-2.6-19-3.5l-2-0.5c-2.8-0.6-7.8-2.2-12.3-3.6
		c-4.9-1.5-9.5-2.9-13.2-3.8l-0.2,0c-0.4-0.1-0.9-0.3-1.6-0.4c-4.5-1.3-13-3.7-22.6-3.7c-11.4,0-21.2,3.3-29.1,9.8
		c-17.8,14.6-27.4,39-28.4,72.4c0,0.5,0,1,0,1.3c-0.4,7.7,1,17.1,2.4,27C191.4,844.6,193.2,857.4,192.8,864.2z"/>
	<polygon class="st3" points="90.8,932.7 164.2,213.2 63.6,895.8 	"/>
	<polygon class="st3" points="703.5,932.7 629.6,213.2 730.8,895.8 	"/>
	<path class="st0" d="M238,196.4c4.9-86.1,75.6-155.3,161.7-155.3s156.8,69.2,161.7,155.3h34.7C591.2,90.5,505.2,6.4,399.8,6.4
		s-191.4,84-196.5,189.9H238z"/>
	<g id="eyes_normal_2_">
		<g>
			<circle class="st0" cx="500.5" cy="483.8" r="76.9"/>
			<circle class="st2" cx="500.4" cy="483.3" r="66.4"/>
			<path class="st0" d="M554.4,480.6c-10.7,10.8-30.2,9.7-44.2-2.8c-14.4-12.8-17.4-32.8-6.9-44.6c1-1.1,2.1-2,3.3-2.9
				c-4.7-0.5-9.5-0.4-14.3,0.3c-29.4,4.6-49.4,32.2-44.8,61.6c4.6,29.4,32.2,49.4,61.6,44.8C536.6,532.5,556,507.9,554.4,480.6z"/>
		</g>
		<g>
			<circle class="st0" cx="290.9" cy="483.8" r="76.9"/>
			<circle class="st2" cx="290.8" cy="483.3" r="66.4"/>
			<path class="st0" d="M346.1,481c-10.9,10.6-30.4,9.3-44.1-3.4c-14.2-13-16.9-33-6.3-44.7c1-1.1,2.1-2,3.3-2.9
				c-4.7-0.5-9.5-0.6-14.3,0.1c-29.4,4.2-49.8,31.5-45.6,61c4.2,29.4,31.5,49.8,61,45.6C327.6,532.6,347.2,508.3,346.1,481z"/>
		</g>
	</g>
</g>
</svg>
