<?xml version="1.0" encoding="utf-8"?>
<!-- Generator: Adobe Illustrator 20.1.0, SVG Export Plug-In . SVG Version: 6.00 Build 0)  -->
<svg version="1.1" id="face" xmlns="http://www.w3.org/2000/svg" xmlns:xlink="http://www.w3.org/1999/xlink" x="0px" y="0px"
	 viewBox="0 0 801.3 961.9" style="enable-background:new 0 0 801.3 961.9;" xml:space="preserve">
<style type="text/css">
	.st0{fill:#424242;}
	.st1{fill:#FF9D00;}
	.st2{fill:#FFFFFF;}
	.st3{fill:#FFFFFF;stroke:#FF9D00;stroke-width:18;stroke-miterlimit:10;}
	.st4{fill:#BC6F00;}
</style>
<title>bumdesku-logo-happy</title>
<path class="st0" d="M644.7,192l156.1,683.8c2,9-2.4,18.2-10.7,22.2l-44.9,21.6l-22.6,33.6c-3.7,5.5-9.8,8.7-16.4,8.7H89.4
	c-6.6,0-12.7-3.3-16.4-8.7l-23-34l-39.9-22c-7.6-4.2-11.6-13-9.7-21.5L153.1,192"/>
<polygon class="st1" points="632.8,208.9 397.6,208.9 386.6,208.9 162.6,208.9 14.9,883.9 59.5,908.5 85.4,946.9 386.3,946.9 
	397.9,946.9 710,946.9 736,908.3 786.3,884.2 "/>
<path class="st2" d="M632.8,208.9H162.6l-74.1,727h619.2L632.8,208.9z M175.1,426.1l3-80.6l394.4-63.3l41.8,57.5l20,511.2H160.1
	L175.1,426.1z"/>
<path class="st3" d="M637.2,836.9c7.2-24.8,15.8-76.2,16-102c0.2-23.9,4-40,0-58c-3.9-17.6-12-47-52-52c-29.6-3.7-59.4-3.7-89,0
	c-36.1,4.6-91.7,24.5-115.6,33.5c-20.9-8.3-75.4-28.8-112.6-33.5c-29.6-3.7-59.4-3.7-89,0c-40,5-48.1,34.4-52,52
	c-4,18-0.2,34.1,0,58c0.2,25.8,8.9,77.2,16,102c4.2,14.8,21,56.2,31,53c5.3-1.7,15.9-7.8,18-13c6-14.9-3.8-48-3-64
	c0.3-6.8,0-43,22-61c13.2-10.8,32.8-3.2,38-2c6.6,1.6,19.4,6,26,7.5c6.2,1.4,18.6,4.4,25,4.5c8.1,0.2,24.2-2.5,32-4.5
	s23-7.6,30-11.5c2-1.1,10.6-9.1,17.6-15.7c10.1,7.2,20.8,14.7,22.7,15.7c7,3.9,22.2,9.5,30,11.5s23.9,4.7,32,4.5
	c6.3-0.1,18.8-3.1,25-4.5c6.6-1.5,19.4-5.9,26-7.5c5.2-1.2,24.8-8.8,38,2c22,18,21.7,54.2,22,61c0.8,16-9,49.1-3,64
	c2.1,5.2,12.7,11.3,18,13C616.2,893.2,633,851.7,637.2,836.9z"/>
<polygon class="st4" points="88.5,935.9 162.6,208.9 60.9,898.6 "/>
<polygon class="st4" points="707.6,935.9 632.8,208.9 735.1,898.6 "/>
<path class="st0" d="M237.2,191.9c5-87,76.4-156.9,163.4-156.9S559,104.9,564.1,191.9h35C594.1,84.9,507.1,0,400.7,0
	S207.2,84.9,202.1,191.9H237.2z"/>
<g id="eyes_happy">
	<path class="st0" d="M234.3,505.4c1.2-34.3,30-61.2,64.4-60c32.7,1.1,58.9,27.4,60,60h19.4c-1.1-45.2-38.7-81-84-79.9
		c-43.7,1.1-78.8,36.2-79.9,79.9H234.3z"/>
	<path class="st0" d="M438.3,504.1c1.2-34.3,30-61.2,64.4-60c32.7,1.1,58.9,27.4,60,60h19.4c-1.1-45.2-38.7-81-84-79.9
		c-43.7,1.1-78.8,36.2-79.9,79.9H438.3z"/>
</g>
</svg>
