<?xml version="1.0" encoding="utf-8"?>
<!-- Generator: Adobe Illustrator 20.1.0, SVG Export Plug-In . SVG Version: 6.00 Build 0)  -->
<svg version="1.1" id="face" xmlns="http://www.w3.org/2000/svg" xmlns:xlink="http://www.w3.org/1999/xlink" x="0px" y="0px"
	 viewBox="0 0 829.6 961.9" style="enable-background:new 0 0 829.6 961.9;" xml:space="preserve">
<style type="text/css">
	.st0{fill:#424242;}
	.st1{fill:#FF9D00;}
	.st2{fill:#FFFFFF;}
	.st3{fill:#FFFFFF;stroke:#FF9D00;stroke-width:18;stroke-miterlimit:10;}
	.st4{fill:#BC6F00;}
</style>
<title>bumdesku-logo-cry</title>
<path class="st0" d="M663.5,192l156.1,683.8c2,9-2.4,18.2-10.7,22.2L764,919.6l-22.6,33.6c-3.7,5.5-9.8,8.7-16.4,8.7H108.2
	c-6.6,0-12.7-3.3-16.4-8.7l-23-34l-39.9-22c-7.6-4.2-11.6-13-9.7-21.5L172,192"/>
<polygon class="st1" points="651.6,208.9 416.4,208.9 405.4,208.9 181.4,208.9 33.7,883.9 78.3,908.5 104.2,946.9 405.1,946.9 
	416.7,946.9 728.8,946.9 754.8,908.3 805.2,884.2 "/>
<path class="st2" d="M651.6,208.9H181.4l-74.1,727h619.2L651.6,208.9z M194,426.1l3-80.6l394.4-63.3l41.8,57.5l20,511.2H179
	L194,426.1z"/>
<path class="st3" d="M656,836.9c7.2-24.8,15.8-76.2,16-102c0.2-23.9,4-40,0-58c-3.9-17.6-12-47-52-52c-29.6-3.7-59.4-3.7-89,0
	c-36.1,4.6-91.7,24.5-115.6,33.5c-20.9-8.3-75.4-28.8-112.6-33.5c-29.6-3.7-59.4-3.7-89,0c-40,5-48.1,34.4-52,52
	c-4,18-0.2,34.1,0,58c0.2,25.8,8.9,77.2,16,102c4.2,14.8,21,56.2,31,53c5.3-1.7,15.9-7.8,18-13c6-14.9-3.8-48-3-64
	c0.3-6.8,0-43,22-61c13.2-10.8,32.8-3.2,38-2c6.6,1.6,19.4,6,26,7.5c6.2,1.4,18.6,4.4,25,4.5c8.1,0.2,24.2-2.5,32-4.5
	s23-7.6,30-11.5c2-1.1,10.6-9.1,17.6-15.7c10.1,7.2,20.8,14.7,22.7,15.7c7,3.9,22.2,9.5,30,11.5s23.9,4.7,32,4.5
	c6.3-0.1,18.8-3.1,25-4.5c6.6-1.5,19.4-5.9,26-7.5c5.2-1.2,24.8-8.8,38,2c22,18,21.7,54.2,22,61c0.8,16-9,49.1-3,64
	c2.1,5.2,12.7,11.3,18,13C635,893.2,651.8,851.7,656,836.9z"/>
<polygon class="st4" points="107.3,935.9 181.4,208.9 79.8,898.6 "/>
<polygon class="st4" points="726.4,935.9 651.6,208.9 754,898.6 "/>
<path class="st0" d="M256,191.9c5-87,76.4-156.9,163.4-156.9S577.9,104.9,583,191.9h35C612.9,84.9,526,0,419.5,0
	S226.1,84.9,221,191.9H256z"/>
<g id="eyes_cry">
	<polygon class="st0" points="382.6,468.1 381.7,468.1 382.7,465.9 249.7,405.1 243.7,418.3 349.1,466.5 306.1,464.5 305.7,474.9 
		347.9,476.9 289.1,496.2 293.6,510 382.3,480.9 381.5,478.4 382.1,478.5 	"/>
	<path class="st0" d="M42.9,584.6c-8.4-1.6-36.2,49-39.3,64.7s6,30.6,20.2,33.4C38,685.5,52,675,55.1,659.3S51.1,586.2,42.9,584.6z
		 M24.5,669.7c-7-1.4-11.4-9.2-9.8-17.6c0.7-3.8,3.6-10.5,7.2-17.7c-2.1,7-3.4,13.2-3.4,16.8c-0.1,8.4,6,15.6,14.2,17
		C30.2,669.7,27.3,670.2,24.5,669.7L24.5,669.7z"/>
	<path class="st0" d="M219.1,462.8c-5.3-3.5-39,23.1-45.7,32.9c-6.6,9.9-4.7,22.7,4.2,28.7s21.6,2.9,28.2-7
		C212.5,507.6,224.3,466.2,219.1,462.8z M181.8,515.8c-4.4-3-5.2-9.6-1.7-14.9c1.6-2.4,5.5-6.1,10.1-10.1c-3.4,4.2-6.1,8.1-7.2,10.5
		c-2.5,5.7-0.4,12.4,4.8,15.7C185.8,517.4,183.6,516.9,181.8,515.8L181.8,515.8z"/>
	<path class="st0" d="M105.6,492.9c-6.4-2.4-35.4,34.2-39.9,46.2s0.7,25.2,11.6,29.3s23.5-2.3,28-14.4
		C109.8,541.9,111.9,495.3,105.6,492.9z M79.6,558.2c-5.4-2.1-7.9-8.9-5.5-15.3c1.1-2.9,4.2-7.9,8.1-13.1c-2.6,5.3-4.5,10-4.9,12.9
		c-1.2,6.7,2.6,13.2,9,15.4C84.1,559,81.7,559,79.6,558.2z"/>
	<polygon class="st0" points="445.5,468.1 446.4,468.1 445.4,465.9 578.4,405.1 584.4,418.3 479,466.5 521.9,464.5 522.4,474.9 
		480.2,476.9 539,496.2 534.5,510 445.8,480.9 446.6,478.4 446,478.5 	"/>
	<path class="st0" d="M776.9,659.3c3.1,15.7,17.1,26.1,31.3,23.4c14.2-2.8,23.3-17.7,20.2-33.4s-31-66.2-39.3-64.7
		C780.9,586.2,773.8,643.6,776.9,659.3z M799.4,668.2c8.2-1.4,14.3-8.6,14.2-16.9c0-3.6-1.3-9.8-3.4-16.8c3.6,7.2,6.5,13.9,7.2,17.7
		c1.6,8.3-2.8,16.2-9.8,17.6C804.8,670.3,801.8,669.7,799.4,668.2L799.4,668.2z"/>
	<path class="st0" d="M626.2,517.5c6.6,9.9,19.3,13,28.2,7s10.8-18.9,4.2-28.7c-6.6-9.9-40.4-36.5-45.7-32.9
		S619.5,507.6,626.2,517.5z M644.1,517.1c5.3-3.3,7.3-10,4.8-15.7c-1-2.5-3.7-6.3-7.2-10.5c4.6,3.9,8.5,7.7,10.1,10.1
		c3.5,5.2,2.8,11.9-1.7,14.9C648.4,516.9,646.2,517.4,644.1,517.1L644.1,517.1z"/>
	<path class="st0" d="M726.7,554c4.5,12.1,17.1,18.5,28,14.4s16.2-17.2,11.6-29.3c-4.5-12.1-33.5-48.6-39.9-46.2
		C720,495.4,722.2,541.9,726.7,554z M745.8,558.1c6.4-2.2,10.2-8.7,9-15.4c-0.5-2.9-2.4-7.6-4.9-12.9c3.9,5.3,7,10.2,8.1,13.1
		c2.4,6.4-0.1,13.2-5.5,15.3C750.3,559,747.9,559,745.8,558.1z"/>
</g>
</svg>
