<?xml version="1.0" encoding="utf-8"?>
<!-- Generator: Adobe Illustrator 20.1.0, SVG Export Plug-In . SVG Version: 6.00 Build 0)  -->
<svg version="1.1" id="Layer_2" xmlns="http://www.w3.org/2000/svg" xmlns:xlink="http://www.w3.org/1999/xlink" x="0px" y="0px"
	 viewBox="0 0 3088.7 638.8" style="enable-background:new 0 0 3088.7 638.8;" xml:space="preserve">
<style type="text/css">
	.st0{fill:#FF9D00;}
</style>
<path class="st0" d="M369,596.4h-94.6v-47.9c-0.5-26.7-9.5-49.1-27.1-67.2c-17.6-18.1-39.6-27.2-65.8-27.2h-59.8v142.3H27V30.9
	c0,0,32.5,4.5,56.9,19.5c21.8,13.4,37.7,46.6,37.7,46.6v260.7h59.8c26.3,0,48.2-9.2,65.8-27.5c17.6-18.3,26.6-40.9,27.1-67.6v-37.2
	H369v37.2c0,57.2-21,104.9-63.1,143c42,38.1,63.1,85.8,63.1,143V596.4z"/>
<path class="st0" d="M555.3,129.2c0,16.2-5.4,29.9-16.1,41.1c-10.8,11.2-24.1,16.8-39.9,16.8c-15.9,0-29.3-5.6-40.3-16.8
	c-11-11.2-16.5-24.9-16.5-41.1c0-16.2,5.5-29.8,16.5-40.8c11-11,24.4-16.4,40.3-16.4c15.4,0,28.6,5.6,39.6,16.8
	C549.8,100,555.3,113.4,555.3,129.2z M546.9,596.4h-94.6v-371h94.6V596.4z"/>
<path class="st0" d="M998.1,415.9c0,53.3-18.1,98.5-54.3,135.6c-36.2,37.1-80.5,55.7-132.8,55.7c-52.8,0-97.3-18.4-133.5-55.3
	c-36.2-36.9-54.3-82.2-54.3-135.9c0-53.3,18.2-98.4,54.7-135.2c36.4-36.9,80.8-55.3,133.2-55.3c52.3,0,96.6,18.4,132.8,55.3
	C980,317.5,998.1,362.6,998.1,415.9z M903.5,415.9c0-25.6-9.1-47.7-27.3-66.2c-18.2-18.5-39.9-27.8-65.2-27.8
	c-25.7,0-47.7,9.1-65.9,27.4c-18.2,18.3-27.3,40.5-27.3,66.6s9.1,48.4,27.3,67c18.2,18.5,40.2,27.8,65.9,27.8
	c25.7,0,47.5-9.2,65.5-27.8C894.5,464.3,903.5,442,903.5,415.9z"/>
<path class="st0" d="M1331.7,486.7c0,22.9-7.5,43.7-22.4,62.3c-29.9,37.3-72.4,55.2-127.5,53.8c-22-0.5-45.9-5.5-71.8-15
	c-25.9-9.5-47.1-21.4-63.4-35.7l52.6-69.3c25.2,24.3,52.1,36.5,80.6,36.5h2.1c11.7,0,22.2-2.1,31.5-6.4
	c12.1-5.7,18.2-13.8,18.2-24.3v-2.9c-1.4-11-8.7-18.8-21.7-23.6c-5.1-1-16.1-3.1-32.9-6.4c-21-4.3-38.8-9.5-53.3-15.7
	c-42.5-18.6-63.8-51.2-63.8-97.9c0-44.8,21.7-78.4,65.2-100.8c19.2-10,39.9-15.2,62.4-15.7c23.4-0.5,47.7,3.6,72.9,12.2
	c29,10,49.5,23.1,61.7,39.3l-63.1,57.9c-16.4-17.2-34.1-25.7-53.3-25.7c-29.9,0-44.9,10-44.9,30.1v1.4c0,9.6,12.1,17.7,36.4,24.4
	c1.9,0.5,17.3,3.6,46.3,9.3c58.9,11.5,88.3,48.3,88.3,110.4V486.7z"/>
<path class="st0" d="M1769.7,415.8c0,53.3-18.1,98.5-54.3,135.7c-36.2,37.1-80.5,55.7-132.8,55.7c-52.8,0-97.3-18.4-133.5-55.3
	c-36.2-36.9-54.3-82.2-54.3-135.9c0-53.3,18.2-98.4,54.7-135.2c36.4-36.9,80.8-55.3,133.2-55.3c33.2,0,64,8.1,92.5,24.3V103.9
	c0,0,8.8-26.8,34.9-48.6c19.7-16.4,59.7-24.5,59.7-24.5V415.8z M1675.1,415.9c0-25.6-9.1-47.7-27.3-66.2
	c-18.2-18.5-39.9-27.8-65.2-27.8c-25.7,0-47.7,9.1-65.9,27.4c-18.2,18.3-27.3,40.5-27.3,66.6s9.1,48.4,27.3,67
	c18.2,18.5,40.2,27.8,65.9,27.8c25.7,0,47.5-9.2,65.5-27.8C1666.1,464.3,1675.1,442,1675.1,415.9z"/>
<path class="st0" d="M2213.9,415.6c0,9.5-0.7,19-2.1,28.5h-274c6.1,20,17.3,36.1,33.6,48.3c16.3,12.2,34.8,18.2,55.4,18.2
	c28.5,0,52.1-11.2,70.8-33.6l57.5,77.9c-36,34.8-78.7,52.2-128.3,52.2c-52.8,0-97.3-18.4-133.5-55.3
	c-36.2-36.9-54.3-82.2-54.3-135.9c0-53.3,18.2-98.4,54.7-135.2c36.4-36.9,80.8-55.3,133.2-55.3c52.3,0,96.6,18.4,132.8,55.2
	C2195.8,317.4,2213.9,362.4,2213.9,415.6z M2108.1,371.9c-17.3-33.4-44.4-50-81.3-50c-37.4,0-64.7,16.7-82,50H2108.1z"/>
<path class="st0" d="M2547.5,486.7c0,22.9-7.5,43.7-22.4,62.3c-29.9,37.3-72.4,55.2-127.6,53.8c-22-0.5-45.9-5.5-71.8-15
	c-25.9-9.5-47.1-21.4-63.4-35.7l52.6-69.3c25.2,24.3,52.1,36.5,80.6,36.5h2.1c11.7,0,22.2-2.1,31.5-6.4
	c12.1-5.7,18.2-13.8,18.2-24.3v-2.9c-1.4-11-8.6-18.8-21.7-23.6c-5.1-1-16.1-3.1-32.9-6.4c-21-4.3-38.8-9.5-53.3-15.7
	c-42.5-18.6-63.8-51.2-63.8-97.9c0-44.8,21.7-78.4,65.2-100.8c19.2-10,39.9-15.2,62.4-15.7c23.4-0.5,47.7,3.6,72.9,12.2
	c29,10,49.5,23.1,61.7,39.3l-63.1,57.9c-16.4-17.2-34.1-25.7-53.3-25.7c-29.9,0-44.9,10-44.9,30.1v1.4c0,9.6,12.1,17.7,36.4,24.4
	c1.9,0.5,17.3,3.6,46.3,9.3c58.9,11.5,88.3,48.3,88.3,110.4V486.7z"/>
<path class="st0" d="M3058.4,596.4h-100.6l-19.8-55.8c-37.4,44.8-85,67.2-143,67.2c-52.3,0-96.6-18.6-132.9-55.8
	c-36.2-37.2-54.3-82.2-54.3-135.1c0-40.5,11.2-77.1,33.6-109.7c22.4-32.6,52.3-55.9,89.7-69.7c22-8.1,43.5-12.2,64.5-12.2
	c39.7,0,75.6,11.6,107.6,34.7c32,23.1,54.8,53.7,68.3,91.9L3058.4,596.4z M2888.1,416.6c0-33.5-13.3-59.6-39.9-78.2
	c-15.4-11-33.2-16.5-53.3-16.5c-32.7,0-57.9,13.4-75.7,40.2c-11.2,16.7-16.8,34.9-16.8,54.5c0,33,13.3,58.8,39.9,77.5
	c16.3,11.5,33.9,17.2,52.6,17.2c25.7,0,47.7-9.2,65.9-27.6C2879,465.3,2888.1,442.9,2888.1,416.6z"/>
</svg>
